<svg width="61" height="34" viewBox="0 0 61 34" fill="none" xmlns="http://www.w3.org/2000/svg">
<path d="M17.28 30L17.256 19.92L12.312 28.224H10.56L5.64 20.136V30H1.992V13.2H5.208L11.496 23.64L17.688 13.2H20.88L20.928 30H17.28ZM36.9779 26.4H29.1779L27.6899 30H23.7059L31.1939 13.2H35.0339L42.5459 30H38.4659L36.9779 26.4ZM35.7539 23.448L33.0899 17.016L30.4259 23.448H35.7539ZM52.5609 13.2C54.0489 13.2 55.3369 13.448 56.4249 13.944C57.5289 14.44 58.3769 15.144 58.9689 16.056C59.5609 16.968 59.8569 18.048 59.8569 19.296C59.8569 20.528 59.5609 21.608 58.9689 22.536C58.3769 23.448 57.5289 24.152 56.4249 24.648C55.3369 25.128 54.0489 25.368 52.5609 25.368H49.1769V30H45.2889V13.2H52.5609ZM52.3449 22.2C53.5129 22.2 54.4009 21.952 55.0089 21.456C55.6169 20.944 55.9209 20.224 55.9209 19.296C55.9209 18.352 55.6169 17.632 55.0089 17.136C54.4009 16.624 53.5129 16.368 52.3449 16.368H49.1769V22.2H52.3449Z" fill="white"/>
<path d="M10.7851 0.678361C11.0957 0.678361 11.3993 0.770536 11.6576 0.94323C11.9158 1.11592 12.1171 1.36138 12.2359 1.64856C12.3548 1.93574 12.3859 2.25174 12.3253 2.55661C12.2647 2.86148 12.1152 3.14152 11.8955 3.36132C11.6759 3.58111 11.3961 3.7308 11.0915 3.79144C10.7869 3.85208 10.4711 3.82096 10.1842 3.702C9.89721 3.58305 9.65195 3.38161 9.4794 3.12316C9.30684 2.8647 9.21474 2.56084 9.21474 2.25V2.25C9.21528 1.83334 9.3809 1.4339 9.67529 1.13928C9.96967 0.844656 10.3688 0.6789 10.7851 0.678361ZM10.7851 0C10.3405 0 9.9058 0.13196 9.53609 0.379193C9.16638 0.626426 8.87822 0.977828 8.70806 1.38896C8.5379 1.8001 8.49338 2.2525 8.58013 2.68895C8.66687 3.12541 8.88099 3.52632 9.19541 3.84099C9.50982 4.15566 9.91041 4.36995 10.3465 4.45677C10.7826 4.54358 11.2347 4.49903 11.6455 4.32873C12.0563 4.15843 12.4074 3.87004 12.6544 3.50003C12.9014 3.13002 13.0333 2.69501 13.0333 2.25C13.0333 1.65326 12.7964 1.08097 12.3748 0.65901C11.9532 0.237053 11.3814 0 10.7851 0V0Z" fill="#F2F2F2"/>
<path d="M22.6957 0.678361C23.0063 0.678361 23.3099 0.770536 23.5681 0.94323C23.8264 1.11592 24.0277 1.36138 24.1465 1.64856C24.2654 1.93574 24.2965 2.25174 24.2359 2.55661C24.1753 2.86148 24.0257 3.14152 23.8061 3.36132C23.5865 3.58111 23.3067 3.7308 23.0021 3.79144C22.6974 3.85208 22.3817 3.82096 22.0947 3.702C21.8078 3.58305 21.5625 3.38161 21.39 3.12316C21.2174 2.8647 21.1253 2.56084 21.1253 2.25V2.25C21.1259 1.83334 21.2915 1.4339 21.5859 1.13928C21.8803 0.844656 22.2794 0.6789 22.6957 0.678361V0.678361ZM22.6957 0C22.251 0 21.8164 0.13196 21.4467 0.379193C21.077 0.626426 20.7888 0.977828 20.6186 1.38896C20.4485 1.8001 20.404 2.2525 20.4907 2.68895C20.5775 3.12541 20.7916 3.52632 21.106 3.84099C21.4204 4.15566 21.821 4.36995 22.2571 4.45677C22.6932 4.54358 23.1452 4.49903 23.556 4.32873C23.9668 4.15843 24.318 3.87004 24.565 3.50003C24.812 3.13002 24.9439 2.69501 24.9439 2.25V2.25C24.9439 1.65326 24.707 1.08097 24.2854 0.65901C23.8638 0.237053 23.292 0 22.6957 0V0Z" fill="#F2F2F2"/>
<path d="M40.5357 0.678361C40.8463 0.678361 41.1499 0.770536 41.4081 0.94323C41.6664 1.11592 41.8676 1.36138 41.9865 1.64856C42.1053 1.93574 42.1364 2.25174 42.0759 2.55661C42.0153 2.86148 41.8657 3.14152 41.6461 3.36132C41.4265 3.58111 41.1466 3.7308 40.842 3.79144C40.5374 3.85208 40.2217 3.82096 39.9347 3.702C39.6478 3.58305 39.4025 3.38161 39.2299 3.12316C39.0574 2.8647 38.9653 2.56084 38.9653 2.25V2.25C38.9658 1.83334 39.1315 1.4339 39.4258 1.13928C39.7202 0.844656 40.1193 0.6789 40.5357 0.678361V0.678361ZM40.5357 0C40.091 0 39.6563 0.13196 39.2866 0.379193C38.9169 0.626426 38.6288 0.977828 38.4586 1.38896C38.2884 1.8001 38.2439 2.2525 38.3307 2.68895C38.4174 3.12541 38.6315 3.52632 38.946 3.84099C39.2604 4.15566 39.661 4.36995 40.0971 4.45677C40.5332 4.54358 40.9852 4.49903 41.396 4.32873C41.8068 4.15843 42.1579 3.87004 42.405 3.50003C42.652 3.13002 42.7838 2.69501 42.7838 2.25V2.25C42.7838 1.65326 42.547 1.08097 42.1254 0.65901C41.7037 0.237053 41.1319 0 40.5357 0Z" fill="#F2F2F2"/>
<path d="M5.36363 4.27505V2.58628H2.70936V4.27505H2V0.197754H2.70936V1.87532H5.36363V0.197754H6.07299V4.27505H5.36363Z" fill="#F2F2F2"/>
<path d="M15.4016 4.29402V0.206543H16.1079V3.64113L18.3744 3.63502V4.29402H15.4016Z" fill="#F2F2F2"/>
<path d="M33.1133 4.29402V0.206543H33.8186V3.64113L36.0862 3.63502V4.29402H33.1133Z" fill="#F2F2F2"/>
<path d="M27.3478 4.29464V2.17807H29.0719C29.6286 2.17807 29.9604 1.92139 29.9604 1.49258C29.9604 1.00978 29.536 0.830516 29.138 0.823386H27.3468V0.204102H29.1289C30.0682 0.204102 30.7002 0.723567 30.7002 1.49156C30.7002 2.30641 30.0774 2.80754 29.0719 2.80754H28.0541V4.29464H27.3478Z" fill="#F2F2F2"/>
<path d="M46.1831 4.29402V0.837032H45.0229V0.206543H48.0384V0.837032H46.8894V4.29402H46.1831Z" fill="#F2F2F2"/>
</svg>
