<svg width="176" height="24" viewBox="0 0 176 24" fill="none" xmlns="http://www.w3.org/2000/svg">
<rect width="176" height="24" rx="2" fill="url(#paint0_linear_78_1865)"/>
<path d="M71.1554 16.144C70.5474 16.144 70.0114 16.02 69.5474 15.772C69.0834 15.524 68.7194 15.188 68.4554 14.764C68.1914 14.34 67.9954 13.88 67.8674 13.384C67.7394 12.888 67.6754 12.36 67.6754 11.8C67.6754 11.248 67.7394 10.724 67.8674 10.228C68.0034 9.724 68.2034 9.264 68.4674 8.848C68.7394 8.424 69.1034 8.088 69.5594 7.84C70.0234 7.584 70.5554 7.456 71.1554 7.456C72.4674 7.456 73.3714 7.96 73.8674 8.968L72.9314 9.448C72.7074 9.112 72.4594 8.86 72.1874 8.692C71.9234 8.516 71.5794 8.428 71.1554 8.428C70.5874 8.428 70.1154 8.608 69.7394 8.968C69.3634 9.328 69.1034 9.752 68.9594 10.24C68.8234 10.72 68.7554 11.24 68.7554 11.8C68.7554 12.72 68.9594 13.512 69.3674 14.176C69.7754 14.832 70.3714 15.16 71.1554 15.16C71.9394 15.16 72.5474 14.804 72.9794 14.092L73.9394 14.452C73.7074 14.964 73.3594 15.376 72.8954 15.688C72.4314 15.992 71.8514 16.144 71.1554 16.144ZM79.9569 15.292C79.4689 15.86 78.8089 16.144 77.9769 16.144C77.1449 16.144 76.4849 15.86 75.9969 15.292C75.5089 14.724 75.2649 13.94 75.2649 12.94C75.2649 11.94 75.5089 11.156 75.9969 10.588C76.4849 10.012 77.1449 9.724 77.9769 9.724C78.8089 9.724 79.4689 10.008 79.9569 10.576C80.4449 11.144 80.6889 11.928 80.6889 12.928C80.6889 13.928 80.4449 14.716 79.9569 15.292ZM76.7529 14.584C77.0489 14.976 77.4569 15.172 77.9769 15.172C78.4969 15.172 78.9009 14.976 79.1889 14.584C79.4849 14.184 79.6329 13.632 79.6329 12.928C79.6329 12.232 79.4849 11.684 79.1889 11.284C78.9009 10.884 78.4969 10.684 77.9769 10.684C77.4569 10.684 77.0489 10.884 76.7529 11.284C76.4649 11.676 76.3209 12.228 76.3209 12.94C76.3209 13.636 76.4649 14.184 76.7529 14.584ZM86.0963 16V12.292C86.0963 11.74 85.9763 11.336 85.7363 11.08C85.5043 10.816 85.1843 10.684 84.7763 10.684C83.8323 10.684 83.3603 11.212 83.3603 12.268V16H82.3163V9.868H83.3603V10.492C83.7363 9.98 84.2643 9.724 84.9443 9.724C85.6643 9.724 86.2083 9.944 86.5763 10.384C86.9523 10.816 87.1403 11.512 87.1403 12.472V16H86.0963ZM90.734 16.144C89.87 16.144 89.438 15.656 89.438 14.68V10.78H88.442V9.868H89.438V7.84L90.482 7.336V9.868H91.994V10.78H90.482V14.332C90.482 14.604 90.526 14.812 90.614 14.956C90.702 15.1 90.87 15.172 91.118 15.172C91.39 15.172 91.694 15.064 92.03 14.848L91.91 15.868C91.558 16.052 91.166 16.144 90.734 16.144ZM96.9651 16V15.436C96.4611 15.908 95.8811 16.144 95.2251 16.144C94.5771 16.144 94.0571 15.968 93.6651 15.616C93.2811 15.256 93.0891 14.744 93.0891 14.08C93.0891 13.416 93.3091 12.912 93.7491 12.568C94.1891 12.224 94.7331 12.052 95.3811 12.052C95.9731 12.052 96.5011 12.184 96.9651 12.448V12.016C96.9651 11.504 96.8491 11.148 96.6171 10.948C96.3931 10.74 96.0651 10.636 95.6331 10.636C95.0171 10.636 94.4211 10.84 93.8451 11.248L93.5451 10.372C94.2011 9.94 94.9411 9.724 95.7651 9.724C97.2211 9.724 97.9491 10.46 97.9491 11.932V16H96.9651ZM95.3811 15.22C95.9811 15.22 96.5091 14.952 96.9651 14.416V13.36C96.5251 13.088 96.0451 12.952 95.5251 12.952C95.1011 12.952 94.7531 13.048 94.4811 13.24C94.2091 13.432 94.0731 13.712 94.0731 14.08C94.0731 14.424 94.1851 14.7 94.4091 14.908C94.6411 15.116 94.9651 15.22 95.3811 15.22ZM101.95 16.144C101.166 16.144 100.546 15.864 100.09 15.304C99.6335 14.736 99.4055 13.948 99.4055 12.94C99.4055 11.932 99.6335 11.144 100.09 10.576C100.554 10.008 101.19 9.724 101.998 9.724C103.086 9.724 103.802 10.2 104.146 11.152L103.162 11.512C102.954 10.968 102.57 10.696 102.01 10.696C101.498 10.696 101.114 10.892 100.858 11.284C100.602 11.676 100.474 12.228 100.474 12.94C100.474 13.644 100.602 14.192 100.858 14.584C101.114 14.968 101.486 15.16 101.974 15.16C102.614 15.16 103.03 14.856 103.222 14.248L104.194 14.572C104.042 15.076 103.77 15.464 103.378 15.736C102.994 16.008 102.518 16.144 101.95 16.144ZM107.304 16.144C106.44 16.144 106.008 15.656 106.008 14.68V10.78H105.012V9.868H106.008V7.84L107.052 7.336V9.868H108.564V10.78H107.052V14.332C107.052 14.604 107.096 14.812 107.184 14.956C107.272 15.1 107.44 15.172 107.688 15.172C107.96 15.172 108.264 15.064 108.6 14.848L108.48 15.868C108.128 16.052 107.736 16.144 107.304 16.144Z" fill="#F0F0F0"/>
<defs>
<linearGradient id="paint0_linear_78_1865" x1="61.7015" y1="-8.16707" x2="58.4702" y2="26.6499" gradientUnits="userSpaceOnUse">
<stop stop-color="#4F00FF"/>
<stop offset="1" stop-color="#6117B6"/>
</linearGradient>
</defs>
</svg>
