<svg width="56" height="24" viewBox="0 0 56 24" fill="none" xmlns="http://www.w3.org/2000/svg">
<rect x="0.5" y="0.5" width="55" height="23" rx="1.5" stroke="#BDBDBD"/>
<path d="M18.3069 16V7.6H19.3509V14.992H23.4789V16H18.3069ZM27.194 16.144C26.362 16.144 25.698 15.848 25.202 15.256C24.714 14.656 24.47 13.88 24.47 12.928C24.47 11.928 24.718 11.144 25.214 10.576C25.71 10.008 26.37 9.724 27.194 9.724C27.93 9.724 28.534 9.972 29.006 10.468C29.486 10.956 29.726 11.68 29.726 12.64C29.726 12.864 29.714 13.096 29.69 13.336H25.538C25.578 13.896 25.75 14.348 26.054 14.692C26.366 15.028 26.754 15.196 27.218 15.196C27.73 15.196 28.17 15.012 28.538 14.644L29.174 15.352C28.646 15.88 27.986 16.144 27.194 16.144ZM25.526 12.448H28.67C28.662 11.816 28.51 11.36 28.214 11.08C27.926 10.792 27.586 10.648 27.194 10.648C26.722 10.648 26.334 10.8 26.03 11.104C25.726 11.4 25.558 11.848 25.526 12.448ZM32.679 10.78V16H31.635V10.78H30.687V9.868H31.635V8.848C31.635 8.352 31.763 7.996 32.019 7.78C32.275 7.564 32.591 7.456 32.967 7.456C33.367 7.456 33.747 7.552 34.107 7.744V8.62C33.779 8.468 33.487 8.392 33.231 8.392C33.007 8.392 32.859 8.448 32.787 8.56C32.715 8.672 32.679 8.828 32.679 9.028V9.868H34.107V10.78H32.679ZM37.0329 16.144C36.1689 16.144 35.7369 15.656 35.7369 14.68V10.78H34.7409V9.868H35.7369V7.84L36.7809 7.336V9.868H38.2929V10.78H36.7809V14.332C36.7809 14.604 36.8249 14.812 36.9129 14.956C37.0009 15.1 37.1689 15.172 37.4169 15.172C37.6889 15.172 37.9929 15.064 38.3289 14.848L38.2089 15.868C37.8569 16.052 37.4649 16.144 37.0329 16.144Z" fill="#BDBDBD"/>
</svg>
