<svg width="56" height="24" viewBox="0 0 56 24" fill="none" xmlns="http://www.w3.org/2000/svg">
<rect width="56" height="24" rx="2" fill="#F0F0F0"/>
<path d="M14.6565 16V7.6H17.9685C18.8965 7.6 19.5685 7.828 19.9845 8.284C20.4085 8.74 20.6205 9.308 20.6205 9.988C20.6205 10.54 20.4565 11.036 20.1285 11.476C19.8085 11.908 19.3205 12.192 18.6645 12.328L20.4645 16H19.2885L17.5605 12.4H15.7005V16H14.6565ZM15.7005 11.428H17.9925C18.5365 11.428 18.9325 11.292 19.1805 11.02C19.4365 10.748 19.5645 10.412 19.5645 10.012C19.5645 9.628 19.4405 9.292 19.1925 9.004C18.9525 8.716 18.5525 8.572 17.9925 8.572H15.7005V11.428ZM23.4529 8.572C23.3249 8.692 23.1689 8.752 22.9849 8.752C22.8009 8.752 22.6449 8.688 22.5169 8.56C22.3969 8.432 22.3369 8.28 22.3369 8.104C22.3369 7.92 22.4009 7.764 22.5289 7.636C22.6569 7.5 22.8089 7.432 22.9849 7.432C23.1689 7.432 23.3249 7.5 23.4529 7.636C23.5809 7.764 23.6449 7.92 23.6449 8.104C23.6449 8.288 23.5809 8.444 23.4529 8.572ZM22.4689 16V9.868H23.5129V16H22.4689ZM27.3878 18.484L26.8838 17.668C27.7718 17.62 28.3838 17.464 28.7198 17.2C29.0638 16.944 29.2358 16.592 29.2358 16.144V15.4C28.8758 15.896 28.3478 16.144 27.6518 16.144C26.9318 16.144 26.3318 15.864 25.8518 15.304C25.3798 14.744 25.1438 13.952 25.1438 12.928C25.1438 11.936 25.3758 11.156 25.8398 10.588C26.3118 10.012 26.9278 9.724 27.6878 9.724C28.3278 9.724 28.8438 9.94 29.2358 10.372V9.868H30.2798V15.748C30.2798 16.684 30.0278 17.36 29.5238 17.776C29.0278 18.192 28.3158 18.428 27.3878 18.484ZM27.8678 15.172C28.1238 15.172 28.3758 15.096 28.6238 14.944C28.8798 14.784 29.0838 14.572 29.2358 14.308V11.5C29.0918 11.26 28.8878 11.064 28.6238 10.912C28.3598 10.76 28.1078 10.684 27.8678 10.684C27.3238 10.684 26.9078 10.88 26.6198 11.272C26.3398 11.656 26.1998 12.208 26.1998 12.928C26.1998 13.624 26.3518 14.172 26.6558 14.572C26.9678 14.972 27.3718 15.172 27.8678 15.172ZM32.2655 16V7.816L33.3095 7.336V10.504C33.6855 9.984 34.2135 9.724 34.8935 9.724C35.6135 9.724 36.1575 9.944 36.5255 10.384C36.9015 10.816 37.0895 11.512 37.0895 12.472V16H36.0455V12.292C36.0455 11.74 35.9255 11.336 35.6855 11.08C35.4535 10.816 35.1335 10.684 34.7255 10.684C33.7815 10.684 33.3095 11.212 33.3095 12.268V16H32.2655ZM40.6833 16.144C39.8193 16.144 39.3873 15.656 39.3873 14.68V10.78H38.3913V9.868H39.3873V7.84L40.4313 7.336V9.868H41.9433V10.78H40.4313V14.332C40.4313 14.604 40.4753 14.812 40.5633 14.956C40.6513 15.1 40.8193 15.172 41.0673 15.172C41.3393 15.172 41.6433 15.064 41.9793 14.848L41.8593 15.868C41.5073 16.052 41.1153 16.144 40.6833 16.144Z" fill="black"/>
</svg>
