<svg width="56" height="24" viewBox="0 0 56 24" fill="none" xmlns="http://www.w3.org/2000/svg">
<rect width="56" height="24" rx="2" fill="white"/>
<path d="M22.2993 8.596V16H21.2553V8.596H18.9153V7.6H24.6393V8.596H22.2993ZM29.5839 15.292C29.0959 15.86 28.4359 16.144 27.6039 16.144C26.7719 16.144 26.1119 15.86 25.6239 15.292C25.1359 14.724 24.8919 13.94 24.8919 12.94C24.8919 11.94 25.1359 11.156 25.6239 10.588C26.1119 10.012 26.7719 9.724 27.6039 9.724C28.4359 9.724 29.0959 10.008 29.5839 10.576C30.0719 11.144 30.3159 11.928 30.3159 12.928C30.3159 13.928 30.0719 14.716 29.5839 15.292ZM26.3799 14.584C26.6759 14.976 27.0839 15.172 27.6039 15.172C28.1239 15.172 28.5279 14.976 28.8159 14.584C29.1119 14.184 29.2599 13.632 29.2599 12.928C29.2599 12.232 29.1119 11.684 28.8159 11.284C28.5279 10.884 28.1239 10.684 27.6039 10.684C27.0839 10.684 26.6759 10.884 26.3799 11.284C26.0919 11.676 25.9479 12.228 25.9479 12.94C25.9479 13.636 26.0919 14.184 26.3799 14.584ZM34.5593 16.144C33.9193 16.144 33.3953 15.904 32.9873 15.424V17.932L31.9433 18.424V9.868H32.9873V10.384C33.4273 9.944 33.9513 9.724 34.5593 9.724C35.3353 9.724 35.9513 10.012 36.4073 10.588C36.8633 11.164 37.0913 11.944 37.0913 12.928C37.0913 13.928 36.8593 14.716 36.3953 15.292C35.9313 15.86 35.3193 16.144 34.5593 16.144ZM34.4273 15.172C34.9393 15.172 35.3313 14.98 35.6033 14.596C35.8833 14.204 36.0233 13.648 36.0233 12.928C36.0233 12.248 35.8793 11.704 35.5913 11.296C35.3113 10.888 34.9233 10.684 34.4273 10.684C33.7793 10.684 33.2993 10.96 32.9873 11.512V14.344C33.4113 14.896 33.8913 15.172 34.4273 15.172Z" fill="black"/>
</svg>
